<?xml version="1.0" encoding="UTF-8"?>
<svg id="Layer_1" xmlns="http://www.w3.org/2000/svg" xmlns:xlink="http://www.w3.org/1999/xlink" version="1.1" viewBox="0 0 1500 457">
  <!-- Generator: Adobe Illustrator 29.4.0, SVG Export Plug-In . SVG Version: 2.1.0 Build 152)  -->
  <defs>
    <style>
      .st0 {
        fill: none;
      }

      .st1 {
        fill: #231f20;
      }

      .st2 {
        fill: url(#linear-gradient);
      }

      .st3 {
        fill: #f012be;
      }
    </style>
    <linearGradient id="linear-gradient" x1="706.6" y1="2.2" x2="707.6" y2="2.2" gradientTransform="translate(-336696 -140.2) scale(477.2 447.6)" gradientUnits="userSpaceOnUse">
      <stop offset="0" stop-color="#f00b51"/>
      <stop offset="1" stop-color="#730062"/>
    </linearGradient>
  </defs>
  <path class="st1" d="M888.7,940.2h18.1v23.3h-18.6c-9.3,0-17.2-1.9-23.7-5.6-6.5-3.8-12.4-7.9-17.7-12.6-5.2-4.6-10.3-8.8-15.1-12.6s-10.1-5.6-15.9-5.6l-.3-.3c-12.4-.4-23.7-2.8-33.8-7.3s-18.7-10.8-25.8-18.9c-7.1-8-12.6-17.7-16.5-29.1-3.9-11.4-6-24-6.2-38,.2-14.5,2.4-27.6,6.5-39.3,4.2-11.7,10-21.7,17.6-30,7.5-8.3,16.5-14.7,27-19.1,10.5-4.5,22.2-6.7,35.1-6.7s24.4,2.2,35,6.7,19.6,10.8,27.1,19.1,13.4,18.3,17.5,30c4.2,11.7,6.4,24.8,6.5,39.3-.2,22.5-5,41.3-14.4,56.5-9.4,15.1-22.6,25.7-39.6,31.8,5.4,4.5,11,8.7,16.6,12.6,5.7,3.8,12.4,5.8,20.3,5.8M879.2,833.5c-.2-9.8-1.6-19-4.3-27.8-2.7-8.7-6.6-16.4-11.8-22.9-5.1-6.6-11.4-11.8-18.7-15.6s-15.6-5.8-24.9-5.8-17.6,1.9-24.9,5.8c-7.3,3.8-13.6,9-18.7,15.6-5.2,6.5-9.1,14.2-11.8,22.9s-4.1,18-4.3,27.8c.2,10,1.6,19.2,4.3,27.8s6.6,16,11.8,22.3,11.4,11.3,18.7,14.9c7.3,3.7,15.6,5.5,24.9,5.5s17.6-1.8,24.9-5.5c7.3-3.7,13.6-8.6,18.7-14.9,5.2-6.3,9.1-13.7,11.8-22.3s4.2-17.8,4.3-27.8"/>
  <rect class="st0" x="733.8" y="738.9" width="173.4" height="225.1"/>
  <path class="st1" d="M938.4,798.7h45.3c19.4,0,33.3,2.9,41.7,8.6,7.5,5.1,12.3,11.1,14.3,18.2,2,7.1,3,16.4,3,27.9v71h-23.1v-70.7c0-3.1,0-5.8-.3-8-.2-2.2-.8-5-1.8-8.4s-2.5-6.2-4.5-8.4c-1.9-2.2-4.7-4.1-8.4-5.8s-8.1-2.5-13.4-2.5h-29.9v103.8h-23.1v-125.8h.2Z"/>
  <rect class="st0" x="939" y="799.2" width="104.3" height="125.8"/>
  <path class="st2" d="M933.5,705.8v-87.5h-477.2v447.6h477.2v-87.5h-7.8v80.2h-461.7v-433h461.7v80.2h7.8Z"/>
  <path class="st3" d="M498.8,680.7h7.7v-26.6l-6.4,5.5c-.2,0-.3.2-.5.3h-.5c-.2,0-.5,0-.7-.2s-.3-.2-.5-.4l-1.4-1.9,10.6-9.2h3.6v32.5h7v3.4h-19.2v-3.4h.3Z"/>
  <rect class="st0" x="497.2" y="648.7" width="21.3" height="35.9"/>
  <path class="st3" d="M543.2,671.1h5.4v2.5c0,.3,0,.5-.2.7s-.4.3-.7.3h-4.4v9.4h-3.9v-9.4h-15.9c-.3,0-.6,0-.9-.3-.2-.2-.4-.4-.5-.7l-.4-2.3,17.4-23.1h4.2v22.9h0ZM539.3,656.4v-1.4c0-.5,0-1,.2-1.5l-13,17.7h12.8v-14.8Z"/>
  <rect class="st0" x="522.1" y="648.7" width="27" height="35.8"/>
  <path class="st3" d="M533.2,998.8v2c0,.6,0,1-.2,1.4,0,.4-.3.7-.4.9l-14.8,29.9c-.2.4-.5.8-.9,1.1-.4.3-.9.5-1.6.5h-3.2l15.1-29.5c.2-.4.4-.8.7-1.1.2-.3.5-.7.8-1h-18.7c-.3,0-.5,0-.8-.3-.2-.2-.3-.5-.3-.8v-3h24.4,0Z"/>
  <rect class="st0" x="509.4" y="999.3" width="24.4" height="35.8"/>
</svg>