<svg xmlns="http://www.w3.org/2000/svg" xmlns:xlink="http://www.w3.org/1999/xlink" viewBox="0 0 802 590" width="334" height="246" preserveAspectRatio="xMidYMid meet" style="width: 100%; height: 100%; transform: translate3d(0px, 0px, 0px); content-visibility: visible; background-color: transparent;"><defs><clipPath id="__lottie_element_122"><rect width="802" height="590" x="0" y="0"/></clipPath><g id="__lottie_element_123"><g transform="matrix(1,0,0,1,392,194)" opacity="1" style="display: block;"><g opacity="1" transform="matrix(1,0,0,1,0,0)"><path fill="rgb(239,10,10)" fill-opacity="1" d=" M560,-312 C560,-312 -570,-312 -570,-312 C-570,-312 -524,382 -524,382 C-524,382 560,382 560,382 C560,382 560,-312 560,-312z"/></g></g></g><clipPath id="__lottie_element_127"><path d="M0,0 L1024,0 L1024,1024 L0,1024z"/></clipPath><mask id="__lottie_element_123_1" mask-type="alpha"><use xmlns:ns1="http://www.w3.org/1999/xlink" ns1:href="#__lottie_element_123"/></mask></defs><g clip-path="url(#__lottie_element_122)"><g mask="url(#__lottie_element_123_1)" style="display: block;"><g clip-path="url(#__lottie_element_127)" transform="matrix(1,0,0,1,-120,-318)" opacity="1"><g transform="matrix(1,0,0,1,512,512)" opacity="1" style="display: block;"><g opacity="1" transform="matrix(1,0,0,1,0,0)"><path fill="rgb(0,0,0)" fill-opacity="1" d=" M309,-39 C309,-39 -294,-39 -294,-39 C-294,-39 -292,428 -292,428 C-292,428 309,428 309,428 C309,428 309,-39 309,-39z"/></g></g><g transform="matrix(1,0,0,1,511.5,512)" opacity="1" style="display: block;"><g opacity="1" transform="matrix(1,0,0,1,0,0)"><path fill="rgb(0,0,0)" fill-opacity="1" d=" M-255,-162.75 C-265.75,-172.375 -288.375,-179.25 -292.5,-152.25 C-292,-103.25 -293.25,-10 -293.25,-10 C-293.25,-10 -96.5,-16 -96.5,-16 C-96.5,-16 -243.25,-152.25 -255,-162.75z"/></g></g><g transform="matrix(-1,0,0,1,528.25,512)" opacity="1" style="display: block;"><g opacity="1" transform="matrix(1,0,0,1,0,0)"><path fill="rgb(0,0,0)" fill-opacity="1" d=" M-277.0400085449219,-146.7469940185547 C-287.8330078125,-156.32400512695312 -310.489990234375,-163.0970001220703 -314.4930114746094,-136.07899475097656 C-315.75,-87 -290.75,62.5 -290.75,62.5 C-290.75,62.5 -101.5,-11 -101.5,-11 C-101.5,-11 -265.25299072265625,-136.28900146484375 -277.0400085449219,-146.7469940185547z"/></g></g><g transform="matrix(1,0,0,1,510,512)" opacity="1" style="display: block;"><g opacity="1" transform="matrix(1,0,0,1,0,0)"><g opacity="1" transform="matrix(1,0,0,1,-154.5,142.5)"><path fill="rgb(255,255,255)" fill-opacity="1" d=" M0,-91.5 C50.49885177612305,-91.5 91.5,-50.49885177612305 91.5,0 C91.5,50.49885177612305 50.49885177612305,91.5 0,91.5 C-50.49885177612305,91.5 -91.5,50.49885177612305 -91.5,0 C-91.5,-50.49885177612305 -50.49885177612305,-91.5 0,-91.5z"/></g><g opacity="1" transform="matrix(0.800000011920929,0,0,0.800000011920929,-154.5,142.5)"><path fill="rgb(0,0,0)" fill-opacity="1" d=" M0,-91.5 C50.49885177612305,-91.5 91.5,-50.49885177612305 91.5,0 C91.5,50.49885177612305 50.49885177612305,91.5 0,91.5 C-50.49885177612305,91.5 -91.5,50.49885177612305 -91.5,0 C-91.5,-50.49885177612305 -50.49885177612305,-91.5 0,-91.5z"/></g></g><g opacity="1" transform="matrix(1,0,0,1,328,0)"><g opacity="1" transform="matrix(1,0,0,1,-154.5,142.5)"><path fill="rgb(255,255,255)" fill-opacity="1" d=" M0,-91.5 C50.49885177612305,-91.5 91.5,-50.49885177612305 91.5,0 C91.5,50.49885177612305 50.49885177612305,91.5 0,91.5 C-50.49885177612305,91.5 -91.5,50.49885177612305 -91.5,0 C-91.5,-50.49885177612305 -50.49885177612305,-91.5 0,-91.5z"/></g><g opacity="1" transform="matrix(0.800000011920929,0,0,0.800000011920929,-154.5,142.5)"><path fill="rgb(0,0,0)" fill-opacity="1" d=" M0,-91.5 C50.49885177612305,-91.5 91.5,-50.49885177612305 91.5,0 C91.5,50.49885177612305 50.49885177612305,91.5 0,91.5 C-50.49885177612305,91.5 -91.5,50.49885177612305 -91.5,0 C-91.5,-50.49885177612305 -50.49885177612305,-91.5 0,-91.5z"/></g></g></g><g transform="matrix(1,0,0,1,512,512)" opacity="1" style="display: block;"><g opacity="1" transform="matrix(1,0,0,1,0,0)"><path stroke-linecap="round" stroke-linejoin="miter" fill-opacity="0" stroke-miterlimit="4" stroke="rgb(255,255,255)" stroke-opacity="1" stroke-width="10" d=" M-67,226 C-67,226 -142.5,274 -142.5,274"/></g><g opacity="1" transform="matrix(1,0,0,1,0,0)"><path stroke-linecap="round" stroke-linejoin="miter" fill-opacity="0" stroke-miterlimit="4" stroke="rgb(255,255,255)" stroke-opacity="1" stroke-width="10" d=" M-55,241 C-55,241 -92.5,298 -92.5,298"/></g><g opacity="1" transform="matrix(1,0,0,1,0,0)"><path stroke-linecap="round" stroke-linejoin="miter" fill-opacity="0" stroke-miterlimit="4" stroke="rgb(255,255,255)" stroke-opacity="1" stroke-width="10" d=" M-37.5,251 C-37.5,251 -57,304.5 -57,304.5"/></g></g><g transform="matrix(-1,0,0,1,528.5,512)" opacity="1" style="display: block;"><g opacity="1" transform="matrix(1,0,0,1,0,0)"><path stroke-linecap="round" stroke-linejoin="miter" fill-opacity="0" stroke-miterlimit="4" stroke="rgb(255,255,255)" stroke-opacity="1" stroke-width="10" d=" M-67,226 C-67,226 -142.5,274 -142.5,274"/></g><g opacity="1" transform="matrix(1,0,0,1,0,0)"><path stroke-linecap="round" stroke-linejoin="miter" fill-opacity="0" stroke-miterlimit="4" stroke="rgb(255,255,255)" stroke-opacity="1" stroke-width="10" d=" M-55,241 C-55,241 -92.5,298 -92.5,298"/></g><g opacity="1" transform="matrix(1,0,0,1,0,0)"><path stroke-linecap="round" stroke-linejoin="miter" fill-opacity="0" stroke-miterlimit="4" stroke="rgb(255,255,255)" stroke-opacity="1" stroke-width="10" d=" M-37.5,251 C-37.5,251 -57,304.5 -57,304.5"/></g></g><g transform="matrix(1,0,0,1,512,512)" opacity="1" style="display: block;"><g opacity="1" transform="matrix(1,0,0,1,0,0)"><path stroke-linecap="round" stroke-linejoin="miter" fill-opacity="0" stroke-miterlimit="4" stroke="rgb(255,255,255)" stroke-opacity="1" stroke-width="20" d=" M-22.5,191 C-22.5,191 40,191 40,191"/></g><g opacity="1" transform="matrix(1,0,0,1,0,0)"><path stroke-linecap="round" stroke-linejoin="miter" fill-opacity="0" stroke-miterlimit="4" stroke="rgb(255,255,255)" stroke-opacity="1" stroke-width="20" d=" M7.5,195.5 C7.5,195.5 7.5,226.5 7.5,226.5"/></g></g></g></g></g></svg>